<svg width="582" height="700" viewBox="0 0 582 700" fill="none" xmlns="http://www.w3.org/2000/svg">
<path fill-rule="evenodd" clip-rule="evenodd" d="M0 45C0 20.1472 20.1472 0 45 0H537C561.853 0 582 20.1472 582 45V513.02C581.649 513.007 581.296 513 580.942 513C566.331 513 554.487 524.193 554.487 538C554.487 551.807 566.331 563 580.942 563C581.296 563 581.649 562.993 582 562.98V655C582 679.853 561.853 700 537 700H45C20.1472 700 0 679.853 0 655V562.98C0.351013 562.993 0.703784 563 1.05818 563C15.6686 563 27.5127 551.807 27.5127 538C27.5127 524.193 15.6686 513 1.05818 513C0.703784 513 0.351013 513.007 0 513.02V45Z" fill="white"/>
</svg>
